<?xml version="1.0" standalone="no"?>
<!DOCTYPE svg PUBLIC "-//W3C//DTD SVG 20010904//EN"
 "http://www.w3.org/TR/2001/REC-SVG-20010904/DTD/svg10.dtd">
<svg version="1.0" xmlns="http://www.w3.org/2000/svg"
 width="283.000000pt" height="162.000000pt" viewBox="0 0 283.000000 162.000000"
 preserveAspectRatio="xMidYMid meet">
<metadata>
Created by potrace 1.10, written by Peter Selinger 2001-2011
</metadata>
<g transform="translate(0.000000,162.000000) scale(0.100000,-0.100000)"
fill="#000000" stroke="none">
<path d="M1937 1491 c-69 -239 -169 -369 -339 -438 -54 -22 -91 -27 -263 -39
-477 -33 -755 -89 -965 -194 -137 -69 -222 -145 -274 -247 -19 -37 -20 -84 -2
-132 l12 -34 23 36 c105 170 457 302 933 351 258 27 395 30 465 12 216 -55
332 -189 417 -486 18 -60 26 -75 41 -75 12 0 21 8 23 20 8 46 67 215 98 275
89 179 235 278 512 350 29 7 42 16 42 28 0 13 -23 24 -99 45 -298 86 -427 208
-521 495 -16 52 -30 102 -30 113 0 13 -7 19 -22 19 -20 0 -26 -12 -51 -99z
m90 -87 c51 -145 98 -220 190 -304 59 -55 189 -123 286 -151 81 -23 77 -32
-36 -73 -249 -92 -373 -220 -448 -463 -11 -36 -26 -63 -33 -63 -8 0 -25 33
-41 77 -47 133 -83 193 -161 271 -41 39 -79 72 -86 72 -6 0 -19 6 -27 14 -9 8
-52 27 -96 42 -78 26 -85 26 -240 21 -146 -6 -414 -30 -468 -42 -12 -3 -33 -7
-47 -9 -123 -20 -262 -56 -368 -95 -123 -47 -196 -88 -275 -158 -43 -38 -57
-41 -57 -13 0 52 101 165 203 225 125 75 348 149 512 171 28 3 53 8 56 10 8 4
248 32 339 38 41 3 120 8 175 11 174 11 283 56 388 162 61 62 130 185 163 296
10 31 23 56 28 54 6 -2 25 -44 43 -93z"/>
<path d="M2402 1456 c-14 -32 -30 -48 -58 -62 l-39 -18 69 -68 c39 -37 70 -66
71 -65 1 1 7 16 14 34 14 35 43 58 85 69 36 9 30 19 -24 46 -33 17 -50 34 -65
66 -11 23 -23 42 -27 42 -4 0 -16 -20 -26 -44z m62 -65 l28 -30 -27 -25 c-15
-14 -30 -26 -33 -26 -3 0 -18 12 -34 26 l-27 27 22 28 c28 36 37 36 71 0z"/>
<path d="M1315 1389 c-650 -23 -1084 -174 -1211 -421 -26 -52 -29 -94 -10
-148 l13 -35 16 31 c9 18 45 57 79 89 193 175 663 295 1158 295 l145 0 42 55
c23 30 65 71 92 92 27 21 50 41 50 46 1 8 -65 7 -374 -4z m278 -26 c3 -5 -20
-36 -51 -70 l-57 -62 -210 -5 c-115 -3 -223 -7 -240 -10 -16 -2 -55 -7 -85
-10 -119 -14 -334 -61 -444 -98 -143 -48 -291 -131 -350 -197 -24 -27 -36 -27
-36 0 0 44 66 131 144 188 54 39 214 121 238 121 8 0 18 4 23 8 16 14 192 60
295 77 52 9 118 20 145 25 62 11 126 17 280 26 66 4 121 7 122 8 9 6 222 6
226 -1z"/>
<path d="M1275 629 c-594 -47 -927 -147 -1102 -332 -72 -76 -97 -128 -90 -189
10 -79 18 -84 55 -36 172 224 631 353 1329 375 l201 6 -54 50 c-31 28 -69 70
-85 94 l-30 43 -62 -1 c-34 -1 -107 -5 -162 -10z m244 -64 c21 -23 44 -52 50
-64 12 -21 11 -21 -86 -22 -54 -1 -111 -3 -128 -4 -16 -1 -86 -5 -155 -9 -69
-4 -141 -10 -160 -13 -189 -29 -268 -42 -285 -46 -11 -3 -42 -10 -70 -17 -190
-42 -383 -127 -491 -216 -37 -29 -70 -52 -74 -49 -21 13 44 131 97 175 74 63
222 140 343 179 78 25 278 68 375 82 133 18 327 39 414 45 47 3 87 7 89 9 10
9 47 -13 81 -50z"/>
</g>
</svg>
